Tv Show

Bade Acche Lagte Hai

16th Aug 12

Brought To You By JamMafia{TMRG} 

Details:.
General
Complete name                            : Bade Acche Lagte Hai -  16th August 2012 - JamMafia.avi
Format                                   : AVI
Format/Info                              : Audio Video Interleave
File size                                : 66.7 MiB
Duration                                 : 22mn 17s
Overall bit rate mode                    : Variable
Overall bit rate                         : 418 Kbps

Video
ID                                       : 0
Format                                   : MPEG-4 Visual
Format profile                           : Advanced Simple@L5
Format settings, BVOP                    : 1
Format settings, QPel                    : No
Format settings, GMC                     : No warppoints
Format settings, Matrix                  : Default (H.263)
Codec ID                                 : XVID
Codec ID/Hint                            : XviD
Duration                                 : 22mn 17s
Bit rate                                 : 323 Kbps
Width                                    : 492 pixels
Height                                   : 352 pixels
Display aspect ratio                     : 1.398
Frame rate                               : 25.000 fps
Color space                              : YUV
Chroma subsampling                       : 4:2:0
Bit depth                                : 8 bits
Scan type                                : Progressive
Compression mode                         : Lossy
Bits/(Pixel*Frame)                       : 0.075
Stream size                              : 51.5 MiB (77%)
Writing library                          : XviD 1.2.1 (UTC 2008-12-04)

Audio
ID                                       : 1
Format                                   : MPEG Audio
Format version                           : Version 1
Format profile                           : Layer 3
Mode                                     : Joint stereo
Mode extension                           : MS Stereo
Codec ID                                 : 55
Codec ID/Hint                            : MP3
Duration                                 : 22mn 17s
Bit rate mode                            : Variable
Bit rate                                 : 82.5 Kbps
Nominal bit rate                         : 112 Kbps
Channel(s)                               : 2 channels
Sampling rate                            : 44.1 KHz
Compression mode                         : Lossy
Stream size                              : 13.2 MiB (20%)
Alignment                                : Aligned on interleaves
Interleave, duration                     : 26 ms (0.65 video frame)
Interleave, preload duration             : 111 ms
Title                                    : Bade Acche Lagte Hai -  16th August 2012 - JamMafia.MP4_track_1__audio
Writing library                          : LAME3.99r

ScreenShots 
http://i.minus.com/jbkZJKsWFMcOQm.jpg